<svg width="18" height="18" viewBox="0 0 18 18" fill="none" xmlns="http://www.w3.org/2000/svg">
<path d="M9.00005 15.4324L8.93449 15.3755L7.89064 14.4692L9.00005 15.4324ZM9.00005 15.4324L9.06561 15.3755M9.00005 15.4324L9.06561 15.3755M9.06561 15.3755L10.1095 14.4692L9.06561 15.3755ZM9.00005 3.98089C9.80404 3.13432 10.9976 2.59995 12.24 2.59995C14.5082 2.59995 16.3 4.29501 16.3 6.47652C16.3 7.80531 15.6708 9.00551 14.5885 10.2684C13.5071 11.5301 11.9615 12.8676 10.1096 14.4691L9.00005 3.98089ZM9.00005 3.98089C8.19606 3.13432 7.00247 2.59995 5.76005 2.59995C3.49186 2.59995 1.70005 4.29501 1.70005 6.47652C1.70005 7.80531 2.32925 9.00551 3.41162 10.2684C4.49304 11.5301 6.03859 12.8676 7.89049 14.4691L9.00005 3.98089ZM9.00669 13.3016L9.00661 13.3016L9.00303 13.305L8.99684 13.3109L8.98636 13.3018L8.98628 13.3017C7.27445 11.8204 5.85991 10.596 4.87241 9.49453C3.88353 8.39158 3.34005 7.43014 3.34005 6.47652C3.34005 5.16287 4.37075 4.17325 5.76005 4.17325C6.83279 4.17325 7.8733 4.83937 8.23788 5.73157L8.26328 5.79374H8.33045H9.66965H9.73681L9.76222 5.73157C10.1268 4.83937 11.1673 4.17325 12.24 4.17325C13.6293 4.17325 14.66 5.16287 14.66 6.47652C14.66 7.43012 14.1166 8.39156 13.1268 9.4945C12.1384 10.5959 10.7221 11.8204 9.00669 13.3016Z" fill="#828282" stroke="#3F3F3F" stroke-width="0.2"/>
</svg>
