<svg width="92" height="24" viewBox="0 0 92 24" fill="none" xmlns="http://www.w3.org/2000/svg">
<rect x="34" width="24" height="24" fill="#E6F1FA"/>
<path d="M41.9708 18.0001C41.7702 18.0001 41.5727 17.9214 41.4254 17.774C41.2071 17.5557 41.14 17.2287 41.2541 16.9417L42.7969 13.0847C42.8363 12.9882 42.8941 12.8995 42.9682 12.8262L48.368 7.42641C48.6696 7.12479 49.1572 7.12479 49.4588 7.42641L51.773 9.74063C52.0746 10.0422 52.0746 10.5298 51.773 10.8314L48.6874 13.917C48.3858 14.2186 47.8982 14.2186 47.5966 13.917C47.295 13.6154 47.295 13.1279 47.5966 12.8262L50.1369 10.286L48.9134 9.06256L44.1716 13.8052L43.3554 15.844L45.395 15.0286L45.5084 14.9144L45.2824 14.6884C44.9808 14.3868 44.9808 13.8993 45.2824 13.5977C45.584 13.296 46.0715 13.296 46.3732 13.5977L47.1446 14.3691C47.4462 14.6707 47.4462 15.1582 47.1446 15.4598L46.3732 16.2312C46.2991 16.3053 46.2112 16.3631 46.114 16.4025L42.2569 17.9453C42.1644 17.9823 42.0672 18.0001 41.9708 18.0001Z" fill="black"/>
<rect width="24" height="24" fill="#E6F1FA"/>
<path d="M12.4973 16.3916C11.1933 15.2193 10.1173 14.251 9.36577 13.3802C8.6115 12.5061 8.2 11.7475 8.2 10.9973C8.2 9.96345 8.97936 9.18992 10.025 9.18992C10.8337 9.18992 11.62 9.71225 11.8954 10.4126L11.9204 10.476H11.9885H13.0115H13.0796L13.1046 10.4126C13.38 9.71225 14.1663 9.18992 14.975 9.18992C16.0206 9.18992 16.8 9.96345 16.8 10.9973C16.8 11.7475 16.3885 12.5061 15.6336 13.3801C14.8814 14.251 13.804 15.2192 12.4973 16.3916ZM12.433 18.0743L12.5 18.1347L12.567 18.0743L13.3643 17.355C14.7786 16.0843 15.9607 15.0216 16.7881 14.0187C17.6165 13.0144 18.1 12.0577 18.1 10.9973C18.1 9.25714 16.7232 7.9 14.975 7.9C14.0275 7.9 13.1179 8.31909 12.5 8.98382C11.8821 8.31909 10.9725 7.9 10.025 7.9C8.27676 7.9 6.9 9.25714 6.9 10.9973C6.9 12.0577 7.38348 13.0144 8.21192 14.0187C9.03929 15.0216 10.2214 16.0843 11.6357 17.355L12.433 18.0743Z" fill="black" stroke="black" stroke-width="0.2"/>
<rect x="68" width="24" height="24" fill="#E6F1FA"/>
<path d="M76.8428 8.8418L83.9883 15.9873" stroke="black" stroke-width="1.6" stroke-linecap="round"/>
<path d="M83.9863 8.8418L76.8408 15.9873" stroke="black" stroke-width="1.6" stroke-linecap="round"/>
</svg>
